<svg xmlns="http://www.w3.org/2000/svg" viewBox="0 0 512 512">
  <defs>
    <linearGradient id="bg" x1="0%" y1="0%" x2="100%" y2="100%">
      <stop offset="0%" style="stop-color:#58a6ff"/>
      <stop offset="100%" style="stop-color:#a371f7"/>
    </linearGradient>
  </defs>
  <rect width="512" height="512" rx="64" fill="url(#bg)"/>
  <g fill="#fff">
    <!-- Book icon -->
    <path d="M128 96h256c17.7 0 32 14.3 32 32v256c0 17.7-14.3 32-32 32H128c-17.7 0-32-14.3-32-32V128c0-17.7 14.3-32 32-32z" fill-opacity="0.2"/>
    <path d="M144 128h224c8.8 0 16 7.2 16 16v224c0 8.8-7.2 16-16 16H144c-8.8 0-16-7.2-16-16V144c0-8.8 7.2-16 16-16z"/>
    <!-- Code lines -->
    <rect x="160" y="168" width="120" height="16" rx="4" fill="#58a6ff"/>
    <rect x="160" y="200" width="180" height="16" rx="4" fill="#3fb950"/>
    <rect x="160" y="232" width="100" height="16" rx="4" fill="#d29922"/>
    <rect x="160" y="264" width="150" height="16" rx="4" fill="#a371f7"/>
    <rect x="160" y="296" width="80" height="16" rx="4" fill="#f85149"/>
    <rect x="160" y="328" width="140" height="16" rx="4" fill="#58a6ff"/>
  </g>
  <!-- Bookmark -->
  <path d="M340 96v96l28-24 28 24V96z" fill="#3fb950"/>
</svg>
